<svg width="220" height="227" viewBox="0 0 220 227" fill="none" xmlns="http://www.w3.org/2000/svg">
<path fill-rule="evenodd" clip-rule="evenodd" d="M9.08708 50.3704C5.44682 50.3704 2.47006 47.2302 2.47006 43.3901C2.47006 39.55 5.44682 36.4099 9.08708 36.4099H87.3303C86.7206 38.6278 86.3888 40.9688 86.3888 43.3901C86.3888 45.8114 86.7161 48.1571 87.3303 50.3704H34.7751L64.0989 115.207C64.2648 115.538 64.3545 115.912 64.3545 116.309C64.3545 134.989 49.9997 150.132 32.2915 150.132C14.5833 150.132 0.228516 134.989 0.228516 116.309C0.228516 115.912 0.32266 115.543 0.484051 115.212L29.8124 50.3704H9.08708ZM219.899 116.309C219.899 134.989 205.545 150.132 187.836 150.132C170.128 150.132 155.773 134.989 155.773 116.309C155.773 115.912 155.868 115.543 156.029 115.212L185.357 50.3704H132.798C133.407 48.1524 133.739 45.8114 133.739 43.3901C133.739 40.9688 133.412 38.6231 132.798 36.4099H211.041C214.681 36.4099 217.658 39.55 217.658 43.3901C217.658 47.2302 214.681 50.3704 211.041 50.3704H190.316L219.639 115.207C219.805 115.538 219.899 115.912 219.899 116.309ZM161.561 113.945H214.103L187.832 55.8562L161.561 113.945ZM62.6599 207.8H157.464C162.471 207.8 166.564 212.122 166.564 217.4V222.271C166.564 224.877 164.551 227 162.081 227H58.0423C55.5721 227 53.5592 224.877 53.5592 222.271V217.4C53.5592 212.117 57.6568 207.8 62.6599 207.8ZM134.712 203.07C133.981 196.847 128.915 191.99 122.827 191.99H97.3006C91.2126 191.99 86.1467 196.847 85.416 203.07H134.712ZM6.02065 113.945H58.5623L32.2915 55.8562L6.02065 113.945ZM99.0625 21.2765V11.6054C99.0625 5.221 104.012 0 110.064 0C116.112 0 121.065 5.221 121.065 11.6054V21.2765C117.779 19.4511 114.036 18.4201 110.064 18.4201C106.092 18.4201 102.349 19.4511 99.0625 21.2765ZM121.065 65.5037V187.261H99.067V65.5037C102.353 67.3291 106.096 68.3601 110.068 68.3601C114.036 68.3601 117.775 67.3291 121.065 65.5037Z" fill="#DC4A26"/>
<path fill-rule="evenodd" clip-rule="evenodd" d="M110.064 63.6308C120.662 63.6308 129.251 54.5698 129.251 43.39C129.251 32.2103 120.662 23.1492 110.064 23.1492C99.4659 23.1492 90.8763 32.2103 90.8763 43.39C90.8763 54.5698 99.4659 63.6308 110.064 63.6308ZM110.064 48.9988C107.128 48.9988 104.747 46.4876 104.747 43.39C104.747 40.2924 107.128 37.7812 110.064 37.7812C113 37.7812 115.381 40.2924 115.381 43.39C115.381 46.4876 113 48.9988 110.064 48.9988ZM110.064 33.052C115.475 33.052 119.864 37.6819 119.864 43.39C119.864 49.0981 115.475 53.728 110.064 53.728C104.653 53.728 100.264 49.0981 100.264 43.39C100.264 37.6819 104.653 33.052 110.064 33.052Z" fill="#DC4A26"/>
</svg>
