<svg width="200" height="200" viewBox="0 0 200 200" fill="none" xmlns="http://www.w3.org/2000/svg">
<path d="M194.138 188.28H187.888V72.6564C187.888 69.4205 185.264 66.7971 182.029 66.7971H158.591C155.356 66.7971 152.732 69.4205 152.732 72.6564V188.28H141.014V111.718C141.014 108.482 138.39 105.859 135.154 105.859H111.717C108.481 105.859 105.858 108.482 105.858 111.718V188.28H94.1392V133.202C94.1392 129.967 91.5158 127.343 88.28 127.343H64.8428C61.6069 127.343 58.9835 129.967 58.9835 133.202V188.28H47.2649V147.265C47.2649 144.029 44.6415 141.405 41.4056 141.405H17.9685C14.7326 141.405 12.1092 144.029 12.1092 147.265V188.28H5.85929C2.6234 188.28 0 190.903 0 194.139C0 197.375 2.6234 199.998 5.85929 199.998H194.138C197.374 199.998 199.997 197.375 199.997 194.139C199.997 190.903 197.374 188.28 194.138 188.28Z" fill="#DC4A26"/>
<path d="M5.85929 125.899C42.4283 125.899 82.0847 112.766 117.524 88.9183C145.279 70.2408 168.416 46.3806 182.788 21.9485L188.478 43.1853C189.18 45.8033 192.567 48.065 195.655 47.3283C198.802 46.5775 200.635 43.2779 199.797 40.1522L190.203 4.34412C189.365 1.21877 186.153 -0.636666 183.027 0.201212L147.219 9.79599C144.093 10.6335 142.238 13.8463 143.076 16.9721C143.913 20.0978 147.125 21.9532 150.252 21.115L173.32 14.9338C159.912 38.2327 137.753 61.1808 110.982 79.1958C77.4555 101.756 40.1225 114.181 5.85929 114.181C2.6234 114.181 0 116.804 0 120.04C0 123.276 2.6234 125.899 5.85929 125.899Z" fill="#DC4A26"/>
</svg>
