<svg width="209" height="209" viewBox="0 0 209 209" fill="none" xmlns="http://www.w3.org/2000/svg">
<path d="M24.4922 92.2542C24.4922 88.8702 21.7532 86.1312 18.3692 86.1312H6.12306C2.73905 86.1312 0 88.8702 0 92.2542C0 95.6395 2.73905 98.3773 6.12306 98.3773H18.3692C21.7532 98.3773 24.4922 95.6395 24.4922 92.2542ZM202.877 86.1312H190.631C187.247 86.1312 184.508 88.8702 184.508 92.2542C184.508 95.6395 187.247 98.3773 190.631 98.3773H202.877C206.261 98.3773 209 95.6395 209 92.2542C209 88.8702 206.261 86.1312 202.877 86.1312ZM33.3257 44.0895L22.7174 37.9664C19.7885 36.2728 16.0444 37.2774 14.3524 40.2083C12.6608 43.1392 13.6654 46.8816 16.5943 48.5732L27.2031 54.6962C30.1132 56.3768 33.8617 55.3979 35.568 52.4544C37.2596 49.5235 36.2546 45.7811 33.3257 44.0895ZM192.406 135.935L181.797 129.812C178.862 128.125 175.119 129.123 173.432 132.054C171.741 134.985 172.745 138.727 175.674 140.419L186.283 146.542C189.193 148.223 192.942 147.244 194.648 144.3C196.339 141.369 195.335 137.627 192.406 135.935ZM56.3354 19.7916C58.04 22.7351 61.7902 23.7144 64.7003 22.0338C67.6312 20.3402 68.6354 16.5978 66.9421 13.6685L60.8191 3.06011C59.1275 0.137368 55.3655 -0.868854 52.4542 0.818252C49.5233 2.50985 48.5191 6.25389 50.2123 9.18316L56.3354 19.7916ZM27.2027 129.812L16.5943 135.935C13.6654 137.627 12.6608 141.369 14.3524 144.3C16.0587 147.245 19.8073 148.224 22.7174 146.542L33.3262 140.419C36.255 138.727 37.2596 134.985 35.568 132.054C33.8699 129.123 30.1079 128.125 27.2027 129.812ZM181.798 54.6962L192.406 48.5732C195.335 46.8816 196.339 43.1392 194.648 40.2083C192.95 37.2774 189.188 36.2732 186.283 37.9664L175.674 44.0895C172.745 45.7811 171.741 49.5235 173.432 52.4544C175.139 55.3996 178.888 56.3785 181.798 54.6962ZM144.3 22.0338C147.21 23.7144 150.96 22.7351 152.665 19.7916L158.788 9.18316C160.482 6.25389 159.477 2.50985 156.546 0.818252C153.622 -0.867222 149.873 0.137368 148.181 3.06011L142.058 13.6685C140.365 16.5978 141.369 20.3418 144.3 22.0338ZM146.961 39.9691C131.145 27.1074 110.421 22.1628 90.071 26.4073C63.6369 31.9152 42.7802 53.5896 38.1752 80.3318C34.3177 102.73 41.7037 125.375 57.9249 140.917C66.5547 149.173 71.801 160.222 73.2489 171.854H98.3771V143.093L75.2483 108.399L63.4328 96.5833C61.0407 94.1916 61.0407 90.3169 63.4328 87.9253C65.8249 85.5336 69.6991 85.5332 72.0908 87.9253L80.0079 95.842L87.925 87.9253C90.3167 85.5332 94.1914 85.5332 96.583 87.9253L104.5 95.842L112.417 87.9253C114.809 85.5332 118.684 85.5332 121.075 87.9253L128.992 95.842L136.909 87.9253C139.301 85.5332 143.176 85.5332 145.567 87.9253C147.959 90.3173 147.96 94.1916 145.567 96.5833L133.752 108.399L110.623 143.093V171.854H135.401C136.116 160.853 141.337 150.079 150.662 141.304C164.128 128.623 171.854 110.743 171.854 92.2542C171.854 71.8869 162.782 52.8308 146.961 39.9691Z" fill="#DC4A26"/>
<path d="M116.746 100.912L108.829 108.829C106.437 111.222 102.563 111.222 100.171 108.829L92.2538 100.913L87.886 105.281L104.5 130.201L121.114 105.281L116.746 100.912ZM73.8846 190.631C73.8846 200.76 82.1255 209.001 92.2538 209.001H116.746C126.875 209.001 135.115 200.76 135.115 190.631V184.1H73.8846V190.631Z" fill="#DC4A26"/>
</svg>
