<svg width="119" height="132" viewBox="0 0 119 132" fill="none" xmlns="http://www.w3.org/2000/svg">
<path d="M76.159 67.1817C75.1478 71.2854 74.8178 77.1168 79.5013 80.617C85.3939 85.0365 87.9419 87.8909 89.0427 90.6463C89.6319 88.7748 89.9148 86.8208 89.8723 84.8597C90.0166 80.3736 91.6288 76.0587 94.4615 72.5771C93.5487 72.677 92.6314 72.7305 91.7132 72.7373C86.0527 72.6789 80.5756 70.7226 76.159 67.1817ZM26.2317 37.7185C26.2317 37.0934 26.4801 36.4938 26.9221 36.0518C27.3641 35.6098 27.9637 35.3614 28.5888 35.3614C29.2139 35.3614 29.8135 35.6098 30.2555 36.0518C30.6975 36.4938 30.9459 37.0934 30.9459 37.7185C30.9459 39.5939 30.2009 41.3925 28.8748 42.7186C27.5487 44.0447 25.7501 44.7897 23.8747 44.7897H21.4422C21.7145 46.8359 22.5788 48.7579 23.9289 50.3193C24.5889 51.0029 25.3714 51.5615 26.2317 51.9693V51.8609C26.2317 51.2357 26.4801 50.6362 26.9221 50.1942C27.3641 49.7521 27.9637 49.5038 28.5888 49.5038C29.2139 49.5038 29.8135 49.7521 30.2555 50.1942C30.6975 50.6362 30.9459 51.2357 30.9459 51.8609V53.0677C32.3837 53.129 33.8215 53.0559 35.2428 52.8461L38.406 52.3959C44.5003 51.2933 50.6803 50.7325 56.8735 50.72V49.5038C56.8735 48.8787 57.1218 48.2791 57.5639 47.8371C58.0059 47.3951 58.6054 47.1467 59.2306 47.1467C59.8557 47.1467 60.4552 47.3951 60.8973 47.8371C61.3393 48.2791 61.5876 48.8787 61.5876 49.5038V51.2952C65.3952 52.1212 68.88 54.0377 71.6169 56.8107C74.3236 59.5961 77.2782 62.1294 80.4441 64.3792V63.6462C80.4441 61.7708 81.1891 59.9722 82.5152 58.6461C83.8413 57.32 85.6399 56.575 87.5153 56.575H94.5865C95.2116 56.575 95.8111 56.8233 96.2532 57.2653C96.6952 57.7074 96.9435 58.3069 96.9435 58.932C96.9435 59.5572 96.6952 60.1567 96.2532 60.5987C95.8111 61.0408 95.2116 61.2891 94.5865 61.2891H87.5153C86.8902 61.2891 86.2906 61.5374 85.8486 61.9795C85.4066 62.4215 85.1582 63.021 85.1582 63.6462V66.847C89.4408 68.3681 94.1048 68.4377 98.4308 67.045C101.163 65.8753 103.496 63.936 105.146 61.4635C106.108 59.9307 106.887 58.2899 107.465 56.575H104.015C103.39 56.575 102.79 56.3266 102.348 55.8846C101.906 55.4426 101.658 54.843 101.658 54.2179C101.658 53.5928 101.906 52.9933 102.348 52.5512C102.79 52.1092 103.39 51.8609 104.015 51.8609H108.531C108.62 51.0712 108.71 50.2816 108.722 49.4614C108.734 48.6835 108.696 47.9175 108.679 47.1467H104.015C103.39 47.1467 102.79 46.8984 102.348 46.4564C101.906 46.0143 101.658 45.4148 101.658 44.7897C101.658 44.1645 101.906 43.565 102.348 43.123C102.79 42.681 103.39 42.4326 104.015 42.4326H108.406C108.132 39.4187 107.593 36.4348 106.794 33.5159C105.811 30.0961 104.054 26.9489 101.658 24.3186V25.9332C101.658 27.8086 100.913 29.6072 99.5865 30.9333C98.2604 32.2594 96.4619 33.0044 94.5865 33.0044C93.9613 33.0044 93.3618 32.756 92.9198 32.314C92.4777 31.872 92.2294 31.2725 92.2294 30.6473C92.2294 30.0222 92.4777 29.4227 92.9198 28.9806C93.3618 28.5386 93.9613 28.2903 94.5865 28.2903C95.2116 28.2903 95.8111 28.0419 96.2532 27.5999C96.6952 27.1579 96.9435 26.5583 96.9435 25.9332V20.0406C95.4178 18.8678 93.8452 17.7575 92.2294 16.7124V21.2191C92.2294 21.8442 91.9811 22.4437 91.539 22.8858C91.097 23.3278 90.4975 23.5761 89.8723 23.5761C89.2472 23.5761 88.6477 23.3278 88.2057 22.8858C87.7636 22.4437 87.5153 21.8442 87.5153 21.2191V14.1479C87.5153 14.0937 87.5436 14.0489 87.5459 13.9947C83.8419 12.0514 79.8541 10.7055 75.73 10.0066V16.505H78.087C78.7122 16.505 79.3117 16.7533 79.7537 17.1953C80.1958 17.6374 80.4441 18.2369 80.4441 18.862C80.4441 19.4872 80.1958 20.0867 79.7537 20.5287C79.3117 20.9707 78.7122 21.2191 78.087 21.2191H73.3729C72.7478 21.2191 72.1483 20.9707 71.7062 20.5287C71.2642 20.0867 71.0159 19.4872 71.0159 18.862V9.49271C69.5937 9.42789 68.1694 9.42789 66.7472 9.49271C66.6011 9.49271 66.4502 9.521 66.3018 9.53042V11.7908C66.3018 12.416 66.0534 13.0155 65.6114 13.4575C65.1694 13.8996 64.5698 14.1479 63.9447 14.1479C63.3196 14.1479 62.72 13.8996 62.278 13.4575C61.836 13.0155 61.5876 12.416 61.5876 11.7908V9.92405C60.0155 10.0961 58.4433 10.3153 56.8735 10.5487V11.7908C56.8735 12.416 56.6252 13.0155 56.1832 13.4575C55.7411 13.8996 55.1416 14.1479 54.5165 14.1479C53.8913 14.1479 53.2918 13.8996 52.8498 13.4575C52.4077 13.0155 52.1594 12.416 52.1594 11.7908V11.3194C50.0852 11.6895 48.0298 12.0784 46.031 12.4838C44.1218 12.8657 42.2315 13.3512 40.3741 13.9358V18.862C40.3741 19.4872 40.6224 20.0867 41.0645 20.5287C41.5065 20.9707 42.106 21.2191 42.7312 21.2191C43.3563 21.2191 43.9558 21.4674 44.3979 21.9094C44.8399 22.3515 45.0882 22.951 45.0882 23.5761C45.0882 24.2013 44.8399 24.8008 44.3979 25.2428C43.9558 25.6849 43.3563 25.9332 42.7312 25.9332C40.8558 25.9332 39.0572 25.1882 37.7311 23.8621C36.405 22.536 35.66 20.7374 35.66 18.862V15.7813C33.5086 16.7581 31.5515 18.1156 29.8828 19.7883C28.1569 21.6381 26.6777 23.7036 25.4822 25.9332H30.9459C31.571 25.9332 32.1705 26.1815 32.6126 26.6236C33.0546 27.0656 33.3029 27.6651 33.3029 28.2903C33.3029 28.9154 33.0546 29.5149 32.6126 29.957C32.1705 30.399 31.571 30.6473 30.9459 30.6473H23.3349C22.7952 32.243 21.9207 35.8635 21.6072 37.2023C21.4217 38.1512 21.2965 39.1109 21.2324 40.0756H23.8747C24.4998 40.0756 25.0993 39.8272 25.5414 39.3852C25.9834 38.9432 26.2317 38.3436 26.2317 37.7185ZM89.8723 47.1467C90.4975 47.1467 91.097 46.8984 91.539 46.4564C91.9811 46.0143 92.2294 45.4148 92.2294 44.7897V40.0756C92.2294 39.4504 92.4777 38.8509 92.9198 38.4089C93.3618 37.9668 93.9613 37.7185 94.5865 37.7185C95.2116 37.7185 95.8111 37.9668 96.2532 38.4089C96.6952 38.8509 96.9435 39.4504 96.9435 40.0756V44.7897C96.9435 46.6651 96.1985 48.4637 94.8724 49.7898C93.5463 51.1159 91.7477 51.8609 89.8723 51.8609H87.5153C86.8902 51.8609 86.2906 51.6125 85.8486 51.1705C85.4066 50.7285 85.1582 50.1289 85.1582 49.5038C85.1582 48.8787 85.4066 48.2791 85.8486 47.8371C86.2906 47.3951 86.8902 47.1467 87.5153 47.1467H89.8723ZM82.8012 25.9332H85.1582C85.7834 25.9332 86.3829 26.1815 86.8249 26.6236C87.267 27.0656 87.5153 27.6651 87.5153 28.2903C87.5153 28.9154 87.267 29.5149 86.8249 29.957C86.3829 30.399 85.7834 30.6473 85.1582 30.6473H82.8012C82.176 30.6473 81.5765 30.8957 81.1345 31.3377C80.6924 31.7797 80.4441 32.3792 80.4441 33.0044C80.4441 33.6295 80.6924 34.229 81.1345 34.6711C81.5765 35.1131 82.176 35.3614 82.8012 35.3614H85.1582C85.7834 35.3614 86.3829 35.6098 86.8249 36.0518C87.267 36.4938 87.5153 37.0934 87.5153 37.7185C87.5153 38.3436 87.267 38.9432 86.8249 39.3852C86.3829 39.8272 85.7834 40.0756 85.1582 40.0756H82.8012C80.9258 40.0756 79.1272 39.3306 77.8011 38.0045C76.475 36.6784 75.73 34.8798 75.73 33.0044C75.73 31.129 76.475 29.3304 77.8011 28.0043C79.1272 26.6782 80.9258 25.9332 82.8012 25.9332ZM71.0159 40.0756V42.4326C71.0159 43.0578 71.2642 43.6573 71.7062 44.0993C72.1483 44.5413 72.7478 44.7897 73.3729 44.7897H75.73C76.3551 44.7897 76.9547 45.038 77.3967 45.48C77.8387 45.9221 78.087 46.5216 78.087 47.1467C78.087 47.7719 77.8387 48.3714 77.3967 48.8134C76.9547 49.2555 76.3551 49.5038 75.73 49.5038H73.3729C71.4975 49.5038 69.699 48.7588 68.3729 47.4327C67.0467 46.1066 66.3018 44.308 66.3018 42.4326V40.0756C66.3018 39.4504 66.5501 38.8509 66.9921 38.4089C67.4342 37.9668 68.0337 37.7185 68.6588 37.7185C69.2839 37.7185 69.8835 37.9668 70.3255 38.4089C70.7675 38.8509 71.0159 39.4504 71.0159 40.0756ZM49.8023 25.9332C49.8023 24.0578 50.5473 22.2592 51.8734 20.9331C53.1995 19.607 54.9981 18.862 56.8735 18.862H61.5876C63.463 18.862 65.2616 19.607 66.5877 20.9331C67.9138 22.2592 68.6588 24.0578 68.6588 25.9332V28.2903C68.6588 28.9154 68.4105 29.5149 67.9684 29.957C67.5264 30.399 66.9269 30.6473 66.3018 30.6473C65.6766 30.6473 65.0771 30.399 64.6351 29.957C64.193 29.5149 63.9447 28.9154 63.9447 28.2903V25.9332C63.9447 25.3081 63.6964 24.7085 63.2543 24.2665C62.8123 23.8245 62.2128 23.5761 61.5876 23.5761H56.8735C56.2484 23.5761 55.6489 23.8245 55.2068 24.2665C54.7648 24.7085 54.5165 25.3081 54.5165 25.9332V28.2903C54.5165 28.9154 54.2681 29.5149 53.8261 29.957C53.3841 30.399 52.7845 30.6473 52.1594 30.6473C51.5343 30.6473 50.9347 30.399 50.4927 29.957C50.0507 29.5149 49.8023 28.9154 49.8023 28.2903V25.9332ZM52.1594 37.7185H54.5165C55.1416 37.7185 55.7411 37.4702 56.1832 37.0281C56.6252 36.5861 56.8735 35.9866 56.8735 35.3614V30.6473C56.8735 30.0222 57.1218 29.4227 57.5639 28.9806C58.0059 28.5386 58.6054 28.2903 59.2306 28.2903C59.8557 28.2903 60.4552 28.5386 60.8973 28.9806C61.3393 29.4227 61.5876 30.0222 61.5876 30.6473V35.3614C61.5876 37.2368 60.8426 39.0354 59.5165 40.3615C58.1904 41.6876 56.3918 42.4326 54.5165 42.4326H52.1594C51.5343 42.4326 50.9347 42.1843 50.4927 41.7423C50.0507 41.3002 49.8023 40.7007 49.8023 40.0756C49.8023 39.4504 50.0507 38.8509 50.4927 38.4089C50.9347 37.9668 51.5343 37.7185 52.1594 37.7185ZM35.66 37.7185C35.66 35.8431 36.405 34.0445 37.7311 32.7184C39.0572 31.3923 40.8558 30.6473 42.7312 30.6473H45.0882C45.7134 30.6473 46.3129 30.8957 46.7549 31.3377C47.1969 31.7797 47.4453 32.3792 47.4453 33.0044C47.4453 33.6295 47.1969 34.229 46.7549 34.6711C46.3129 35.1131 45.7134 35.3614 45.0882 35.3614H42.7312C42.106 35.3614 41.5065 35.6098 41.0645 36.0518C40.6224 36.4938 40.3741 37.0934 40.3741 37.7185V40.0756C40.3741 40.7007 40.6224 41.3002 41.0645 41.7423C41.5065 42.1843 42.106 42.4326 42.7312 42.4326H45.0882C45.7134 42.4326 46.3129 42.681 46.7549 43.123C47.1969 43.565 47.4453 44.1645 47.4453 44.7897C47.4453 45.4148 47.1969 46.0143 46.7549 46.4564C46.3129 46.8984 45.7134 47.1467 45.0882 47.1467H42.7312C40.8558 47.1467 39.0572 46.4017 37.7311 45.0756C36.405 43.7495 35.66 41.951 35.66 40.0756V37.7185Z" fill="black"/>
<path d="M3.34231 80.6515C5.36231 81.6791 8.12243 83.0887 8.67162 85.9808C9.01306 87.7608 8.79144 89.6029 8.03757 91.2512C7.63687 92.0926 7.22439 92.8304 6.85904 93.4691C6.73412 93.6884 6.59977 93.9406 6.47956 94.1503C7.44595 94.9258 8.79419 95.9346 9.35988 96.3542C9.61283 96.5416 9.82567 96.7778 9.98584 97.0488C10.146 97.3199 10.2503 97.6202 10.2924 97.9322C10.3346 98.2442 10.3139 98.5614 10.2314 98.8653C10.149 99.1691 10.0065 99.4533 9.81244 99.7012C9.46359 100.156 9.16189 100.644 8.90969 101.16L9.41409 101.45C10.4432 101.893 11.3643 102.554 12.1145 103.386C12.8647 104.219 13.4262 105.203 13.7605 106.273C14.0976 107.946 14.0221 109.674 13.5389 111.31C13.4305 111.8 13.3197 112.288 13.2561 112.776C13.1207 114.187 13.3152 115.61 13.8242 116.934C14.0681 117.988 14.7114 118.907 15.6186 119.497C16.5259 120.086 17.6265 120.302 18.6891 120.097C25.544 118.425 32.3037 116.384 38.9386 113.983C41.1943 113.212 43.2568 112.491 44.9373 111.901C46.7923 111.251 48.1901 110.763 48.8925 110.541C58.6861 107.477 60.6778 103.927 60.6165 101.5C60.609 101.19 60.6625 100.882 60.7741 100.593C60.8856 100.304 61.053 100.04 61.2667 99.8162C61.4803 99.592 61.736 99.4122 62.0192 99.2869C62.3023 99.1616 62.6074 99.0934 62.917 99.086C64.2016 99.1025 65.2552 100.107 65.3306 101.389C65.4673 107.282 60.4138 111.866 50.3091 115.039C49.635 115.251 48.2844 115.725 46.4977 116.349C45.9674 116.538 45.3993 116.733 44.7983 116.943C48.6981 121.252 51.5469 126.406 53.1211 132L106.574 131.854L106.405 131.597C105.731 130.625 105.124 129.608 104.587 128.554C103.42 126.163 102.441 123.686 101.658 121.143C100.227 116.322 99.239 111.38 98.7066 106.379C97.7703 98.496 98.9584 90.5063 102.148 83.2372C104.033 79.31 106.359 75.6107 109.082 72.2108C110.454 70.3629 111.873 68.4513 113.089 66.5138C116.35 61.4686 118.108 55.5996 118.157 49.5925C118.29 43.2963 117.52 37.0136 115.868 30.9364C113.782 23.7838 109.404 17.5148 103.407 13.0934C91.0509 3.41062 79.6097 -0.624667 66.2734 0.0777364C58.8346 0.596289 51.4475 1.65697 44.1619 3.25034C34.5168 5.1902 27.6059 8.49008 23.0403 13.2985C19.3107 17.2787 16.4336 21.979 14.5855 27.1109C13.777 29.4443 13.1194 31.8297 12.615 34.2504L12.4241 35.073C11.8624 37.2021 11.0959 39.2718 10.1354 41.2532C9.67612 42.2505 9.24694 43.2613 8.8484 44.2844C8.60798 44.8029 8.4807 45.3639 8.47127 45.9343C8.57263 46.6603 9.47302 47.4853 10.4253 48.3574C11.3902 49.0341 12.198 49.9106 12.7939 50.9275C13.3897 51.9443 13.7596 53.0775 13.8784 54.25C13.8394 55.3747 13.5219 56.4721 12.9544 57.4438C10.0093 63.6539 6.39998 69.5266 2.18971 74.9592C0.377129 77.1724 0.00707118 78.0233 0 78.3887C0.433699 78.7965 0.895683 79.1712 1.38595 79.5106C2.00586 79.9443 2.65876 80.3262 3.34231 80.6515ZM16.9991 36.2044C17.1429 35.5892 18.2814 30.7007 19.005 28.7372C19.1511 28.3436 19.3326 27.9783 19.4905 27.5917C19.5358 27.4472 19.595 27.3075 19.6673 27.1745C21.271 23.2475 23.5752 19.6447 26.4674 16.5418C29.4539 13.6107 33.0752 11.4065 37.0506 10.1C37.1025 10.0764 37.1567 10.0646 37.2109 10.0434C39.7801 9.12413 42.4129 8.40051 45.0882 7.87253C51.193 6.57615 57.3638 5.62625 63.5746 5.02756C63.6956 4.99233 63.8194 4.96787 63.9447 4.95449C63.9989 4.95449 64.0437 4.98042 64.0979 4.98513C64.9016 4.91914 65.7054 4.82721 66.5091 4.78478C67.4072 4.74236 68.284 4.71879 69.1514 4.71879C80.1754 4.71879 89.8417 8.45001 100.5 16.8129C105.701 20.6261 109.504 26.0421 111.326 32.228C112.443 36.2946 113.114 40.4708 113.325 44.6827C113.325 44.7204 113.346 44.7511 113.346 44.7888V44.8312C113.431 46.3798 113.466 47.9473 113.443 49.5288C113.409 51.1027 113.242 52.671 112.946 54.217C112.943 54.5519 112.868 54.8823 112.726 55.1858C112.052 58.3068 110.835 61.2851 109.129 63.9847C107.544 66.2943 105.546 68.2919 103.237 69.8773L103.166 69.941C98.8999 74.0705 94.5864 79.0722 94.5864 84.8588C94.5864 95.4373 89.1864 98.4449 88.5689 98.7655C88.2085 98.9455 87.8081 99.0303 87.4057 99.0115C87.0033 98.9928 86.6124 98.8713 86.2703 98.6585C85.9283 98.4457 85.6465 98.1489 85.4518 97.7962C85.2571 97.4436 85.156 97.0469 85.1582 96.6441C85.1582 92.4745 85.1582 90.7515 76.6728 84.3874C68.7955 78.4947 70.7189 68.5432 72.1944 63.881C70.8785 62.6706 69.5842 61.4369 68.3123 60.1804C61.7809 53.7928 54.1912 54.8841 39.0683 57.0596L35.8957 57.5169C29.079 58.4833 23.8888 57.1539 20.4946 53.5571C15.1535 47.8813 16.4688 38.8419 16.9991 36.2044Z" fill="black"/>
</svg>
