<svg width="61" height="25" viewBox="0 0 61 25" fill="none" xmlns="http://www.w3.org/2000/svg">
<path d="M5.06167 0.801758H0.726562V5.13686H5.06167V0.801758Z" fill="#9E9E9E"/>
<path d="M4.94744 23.3882V7.77568H0.84375V23.3882H4.94744ZM32.2231 23.5425V19.7165C31.6214 19.7165 31.1123 19.6856 30.7421 19.6239C30.3101 19.5622 29.9861 19.4079 29.7702 19.1919C29.5542 18.9759 29.4153 18.6674 29.3382 18.2663C29.2765 17.8806 29.2456 17.3715 29.2456 16.7544V11.2931H32.2231V7.77568H29.2456V1.68185H25.1265V16.7852C25.1265 18.0657 25.2345 19.1456 25.4505 20.0096C25.6665 20.8581 26.0367 21.5523 26.5458 22.0769C27.0549 22.6014 27.7337 22.9716 28.5514 23.2031C29.3845 23.4345 30.4335 23.5425 31.6832 23.5425H32.2231ZM55.7962 23.3882V0.478516H51.6771V23.3882H55.7962ZM21.1617 9.30299C20.02 8.0688 18.4156 7.4517 16.3792 7.4517C15.3918 7.4517 14.497 7.65226 13.6794 8.05337C12.8771 8.45449 12.1829 9.00987 11.6429 9.71953L11.4115 10.0126V9.75039V7.77568H7.35412V23.3882H11.4424V15.0728V15.6436C11.4424 15.5511 11.4424 15.4585 11.4424 15.3659C11.4887 13.9003 11.8435 12.8204 12.5223 12.1262C13.2474 11.3857 14.1268 11.0154 15.1295 11.0154C16.3174 11.0154 17.2277 11.3857 17.8293 12.0953C18.4156 12.805 18.7241 13.8078 18.7241 15.0882V15.1191V23.3728H22.8741V14.5174C22.8895 12.2959 22.3033 10.5371 21.1617 9.30299ZM49.5481 15.5511C49.5481 14.4249 49.3475 13.3758 48.9619 12.3884C48.5607 11.4165 48.0054 10.5526 47.3111 9.81211C46.6015 9.07158 45.753 8.50077 44.7656 8.08423C43.7783 7.66769 42.6829 7.46713 41.495 7.46713C40.3688 7.46713 39.3043 7.68311 38.3169 8.09965C37.3296 8.53162 36.4657 9.10244 35.7406 9.82753C35.0155 10.5526 34.4292 11.4165 34.0127 12.4039C33.5807 13.3912 33.3802 14.4557 33.3802 15.5819C33.3802 16.7081 33.5807 17.7726 33.9818 18.76C34.383 19.7473 34.9538 20.6112 35.6634 21.3363C36.3731 22.0614 37.2525 22.6477 38.2707 23.0642C39.2889 23.4962 40.4151 23.7122 41.6184 23.7122C45.105 23.7122 47.2648 22.1231 48.5607 20.6421L45.5987 18.3897C44.9816 19.1302 43.5006 20.133 41.6493 20.133C40.4922 20.133 39.5357 19.8707 38.8106 19.3308C38.0855 18.8062 37.5919 18.0657 37.3296 17.1555L37.2833 17.0167H49.5481V15.5511ZM37.3142 14.1163C37.3142 12.9747 38.6255 10.9845 41.4487 10.9691C44.2719 10.9691 45.5987 12.9593 45.5987 14.1009L37.3142 14.1163Z" fill="#0B0A0A"/>
<path d="M60.4863 21.3514C60.4092 21.1663 60.3012 21.012 60.1623 20.8732C60.0235 20.7344 59.8692 20.6264 59.6841 20.5492C59.4989 20.4721 59.2984 20.4258 59.0978 20.4258C58.8818 20.4258 58.6967 20.4721 58.5116 20.5492C58.3265 20.6264 58.1722 20.7344 58.0333 20.8732C57.8945 21.012 57.7865 21.1663 57.7094 21.3514C57.6322 21.5366 57.5859 21.7371 57.5859 21.9377C57.5859 22.1537 57.6322 22.3388 57.7094 22.5239C57.7865 22.7091 57.8945 22.8633 58.0333 23.0022C58.1722 23.141 58.3265 23.249 58.5116 23.3262C58.6967 23.4033 58.8973 23.4496 59.0978 23.4496C59.3138 23.4496 59.4989 23.4033 59.6841 23.3262C59.8692 23.249 60.0235 23.141 60.1623 23.0022C60.3012 22.8633 60.4092 22.7091 60.4863 22.5239C60.5634 22.3388 60.6097 22.1382 60.6097 21.9377C60.6097 21.7371 60.5634 21.5366 60.4863 21.3514ZM60.2395 22.4314C60.1777 22.5856 60.0852 22.7245 59.9772 22.8325C59.8692 22.9405 59.7304 23.033 59.5761 23.0947C59.4218 23.1565 59.2675 23.1873 59.0824 23.1873C58.9127 23.1873 58.743 23.1565 58.5887 23.0947C58.4344 23.033 58.2956 22.9405 58.1876 22.8325C58.0796 22.7245 57.9871 22.5856 57.9253 22.4314C57.8636 22.2771 57.8328 22.1228 57.8328 21.9377C57.8328 21.768 57.8636 21.5983 57.9253 21.444C57.9871 21.2897 58.0796 21.1509 58.1876 21.0429C58.2956 20.9349 58.4344 20.8423 58.5887 20.7806C58.743 20.7189 58.8973 20.6881 59.0824 20.6881C59.2521 20.6881 59.4218 20.7189 59.5761 20.7806C59.7304 20.8423 59.8692 20.9349 59.9772 21.0429C60.0852 21.1509 60.1777 21.2897 60.2395 21.444C60.3012 21.5983 60.332 21.7526 60.332 21.9377C60.3474 22.1228 60.3012 22.2771 60.2395 22.4314ZM59.3755 22.0611C59.4989 22.0457 59.5915 21.9994 59.6686 21.9223C59.7458 21.8451 59.7921 21.7371 59.7921 21.5829C59.7921 21.4132 59.7458 21.2897 59.6378 21.1972C59.5452 21.1046 59.3755 21.0583 59.175 21.0583H58.4962V22.8016H58.8201V22.092H59.0515L59.4835 22.8016H59.8229L59.3755 22.0611ZM59.2058 21.8143C59.1595 21.8143 59.1133 21.8143 59.0515 21.8143H58.8201V21.3206H59.0515C59.0978 21.3206 59.1441 21.3206 59.2058 21.3206C59.2521 21.3206 59.2984 21.336 59.3447 21.3514C59.3909 21.3669 59.4218 21.3977 59.4372 21.4286C59.4527 21.4594 59.4681 21.5057 59.4681 21.5674C59.4681 21.6291 59.4527 21.6754 59.4372 21.7063C59.4064 21.7371 59.3755 21.768 59.3447 21.7834C59.2984 21.7988 59.2521 21.8143 59.2058 21.8143Z" fill="#0B0A0A"/>
</svg>
