<svg width="79" height="110" viewBox="0 0 79 110" fill="none" xmlns="http://www.w3.org/2000/svg">
<path d="M62.8296 36.2955L78.4065 5.64783C78.7483 5.05583 78.9283 4.38429 78.9283 3.70071C78.9283 3.01713 78.7483 2.34559 78.4065 1.75359C78.043 1.20116 77.5448 0.750408 76.9589 0.443815C76.3729 0.137222 75.7186 -0.0151094 75.0575 0.00118213H54.4959C53.7768 0.00336176 53.0723 0.204632 52.4605 0.582683C51.8488 0.960733 51.3536 1.5008 51.03 2.14301L39.4641 24.8854L27.7814 2.14301C27.467 1.51812 26.9901 0.98945 26.4008 0.612561C25.8115 0.235673 25.1315 0.024482 24.4324 0.00118213H3.87078C3.1987 -0.00273173 2.53704 0.16736 1.95018 0.494914C1.36331 0.822469 0.871205 1.29633 0.521729 1.87042C0.179938 2.46242 0 3.13396 0 3.81754C0 4.50112 0.179938 5.17266 0.521729 5.76466L16.0987 36.4123C16.4276 37.0473 16.9251 37.5794 17.5364 37.9503C18.1478 38.3213 18.8495 38.5167 19.5646 38.5152H28.3655C27.8009 40.2374 27.5117 42.0379 27.5088 43.8503C27.4703 44.5767 27.4703 45.3047 27.5088 46.0311C20.3679 48.8262 14.4274 54.0275 10.7135 60.7366C6.99958 67.4457 5.74541 75.2412 7.16765 82.7766C8.58989 90.312 12.5992 97.1141 18.5031 102.008C24.407 106.902 31.8346 109.58 39.5031 109.58C47.1715 109.58 54.5992 106.902 60.5031 102.008C66.4069 97.1141 70.4163 90.312 71.8385 82.7766C73.2607 75.2412 72.0066 67.4457 68.2926 60.7366C64.5787 54.0275 58.6382 48.8262 51.4973 46.0311C51.6025 45.2822 51.6675 44.5283 51.692 43.7724C51.7783 41.964 51.5945 40.1527 51.1469 38.3984H59.6752C60.3366 38.3456 60.9735 38.1247 61.5256 37.7567C62.0776 37.3887 62.5265 36.8857 62.8296 36.2955ZM59.2469 71.3437L49.3166 81.0403L51.6531 94.748L39.4641 88.2057L27.1583 94.6702L29.4949 80.9624L19.5646 71.2658L33.3112 69.2797L39.4641 56.7792L45.617 69.2797L59.2469 71.3437ZM43.8646 43.8114V44.084C42.4088 43.8449 40.9388 43.7018 39.4641 43.6556C38.0437 43.6597 36.6252 43.7638 35.2194 43.9672C35.2012 43.8903 35.2012 43.8103 35.2194 43.7335C35.1682 41.8183 35.7575 39.9408 36.8939 38.3984H42.3459C43.4685 39.9457 44.0439 41.8228 43.9814 43.7335L43.8646 43.8114Z" fill="black"/>
</svg>
