<svg width="73" height="41" viewBox="0 0 73 41" fill="none" xmlns="http://www.w3.org/2000/svg">
<g clip-path="url(#clip0_1_397)">
<path d="M0.242188 39.8382H1.87049V36.6052C1.87049 36.0294 1.87049 35.3191 2.1654 34.903C2.45884 34.4507 2.98584 34.3036 3.28001 34.3036C4.65184 34.3036 4.65184 35.9208 4.65184 36.4825V39.8382H6.2794V36.1647C6.2794 35.637 6.2794 34.4994 5.65557 33.7529C5.0931 33.0663 4.19801 32.8076 3.61114 32.8076C2.58153 32.8076 2.01832 33.373 1.74927 33.6302V33.0404H0.242188V39.8382Z" fill="#0B0A0A"/>
<path fill-rule="evenodd" clip-rule="evenodd" d="M13.6811 37.1693C13.7277 36.9498 13.7787 36.6675 13.7787 36.3496C13.7787 34.6363 12.4187 32.7715 10.2634 32.7715C8.16872 32.7715 6.6875 34.5373 6.6875 36.459C6.6875 38.4421 8.25519 40.0601 10.276 40.0601C11.8681 40.0601 13.1652 38.9225 13.5577 37.6971H11.8422C11.5369 38.2603 10.9988 38.5655 10.276 38.5655C9.11259 38.5655 8.47545 37.6106 8.40154 37.1693H13.6811ZM8.35276 35.8588C8.65876 34.5971 9.6758 34.2668 10.276 34.2668C11.0846 34.2668 11.9287 34.7686 12.1127 35.8588H8.35276Z" fill="#0B0A0A"/>
<path d="M15.8721 39.8388H16.8744L18.1612 35.4306H18.1848L19.4598 39.8388H20.4636L22.9493 33.041H21.2108L19.9602 37.1934H19.9366L18.833 33.041H17.5366L16.422 37.1934H16.3976L15.161 33.041H13.4219L15.8721 39.8388Z" fill="#0B0A0A"/>
<path fill-rule="evenodd" clip-rule="evenodd" d="M26.1016 39.8389H27.5946V39.0185C27.9974 39.4723 28.5754 40.0599 29.8859 40.0599C32.3709 40.0599 33.2652 37.7701 33.2652 36.4094C33.2652 34.611 31.9185 32.8083 29.849 32.8083C29.0891 32.8083 28.2923 33.0914 27.7291 33.6554V30.7764H26.1016V39.8389ZM27.6308 36.3495C27.6308 35.3576 28.4025 34.3043 29.6516 34.3043C30.6812 34.3043 31.6369 35.0989 31.6369 36.4234C31.6369 37.7442 30.7426 38.5661 29.6767 38.5661C28.7218 38.5661 27.6308 37.8558 27.6308 36.3495Z" fill="#0B0A0A"/>
<path fill-rule="evenodd" clip-rule="evenodd" d="M40.8652 33.0412H39.3699V33.9008H39.3455C39.296 33.8017 38.4748 32.8076 37.0927 32.8076C35.2072 32.8076 33.6875 34.3147 33.6875 36.3983C33.6875 38.663 35.2434 40.06 36.9951 40.06C37.851 40.06 38.8562 39.6054 39.3699 38.9964V39.839H40.8652V33.0412ZM39.3226 36.4234C39.3226 37.6844 38.4638 38.5654 37.3366 38.5654C36.1739 38.5654 35.3158 37.6223 35.3158 36.4715C35.3158 35.4552 36.0017 34.3044 37.3366 34.3044C38.3048 34.3044 39.3226 35.0139 39.3226 36.4234Z" fill="#0B0A0A"/>
<path d="M43.3627 30.7766H41.7344V39.839H43.3627V30.7766Z" fill="#0B0A0A"/>
<path fill-rule="evenodd" clip-rule="evenodd" d="M51.0285 33.0412H49.5347V33.9008H49.5096C49.4601 33.8017 48.6389 32.8076 47.2567 32.8076C45.369 32.8076 43.8516 34.3147 43.8516 36.3983C43.8516 38.663 45.4074 40.06 47.1584 40.06C48.0151 40.06 49.0188 39.6054 49.5347 38.9964V39.839H51.0285V33.0412ZM49.4852 36.4234C49.4852 37.6844 48.6286 38.5654 47.5014 38.5654C46.3373 38.5654 45.4806 37.6223 45.4806 36.4715C45.4806 35.4552 46.1665 34.3044 47.5014 34.3044C48.4689 34.3044 49.4852 35.0139 49.4852 36.4234Z" fill="#0B0A0A"/>
<path d="M51.8984 39.8382H53.526V36.6052C53.526 36.0294 53.526 35.3191 53.8209 34.903C54.1143 34.4507 54.6428 34.3036 54.9355 34.3036C56.3066 34.3036 56.3066 35.9208 56.3066 36.4825V39.8382H57.9364V36.1647C57.9364 35.637 57.9364 34.4994 57.3103 33.7529C56.7471 33.0663 55.8543 32.8076 55.2659 32.8076C54.2363 32.8076 53.6746 33.373 53.404 33.6302V33.0404H51.8984V39.8382Z" fill="#0B0A0A"/>
<path d="M63.7189 37.6223C63.2895 38.3082 62.7521 38.5654 62.2133 38.5654C60.9871 38.5654 60.1674 37.5979 60.1674 36.4345C60.1674 35.0383 61.1475 34.3036 62.1386 34.3036C63.1431 34.3036 63.5238 34.9525 63.7189 35.2947H65.5571C64.8586 33.2 62.9953 32.8076 62.1386 32.8076C60.2649 32.8076 58.5391 34.3287 58.5391 36.4086C58.5391 38.663 60.4105 40.0592 62.1519 40.0592C63.744 40.0592 65.0042 39.1404 65.5571 37.6223H63.7189Z" fill="#0B0A0A"/>
<path fill-rule="evenodd" clip-rule="evenodd" d="M72.8061 37.1693C72.8542 36.9498 72.903 36.6675 72.903 36.3496C72.903 34.6363 71.5445 32.7715 69.3891 32.7715C67.2945 32.7715 65.8125 34.5373 65.8125 36.459C65.8125 38.4421 67.3802 40.0601 69.401 40.0601C70.9923 40.0601 72.2917 38.9225 72.6827 37.6971H70.9687C70.6619 38.2603 70.1246 38.5655 69.401 38.5655C68.2368 38.5655 67.6005 37.6106 67.5288 37.1693H72.8061ZM67.4785 35.8588C67.7852 34.5971 68.8008 34.2668 69.401 34.2668C70.2103 34.2668 71.0544 34.7686 71.2377 35.8588H67.4785Z" fill="#0B0A0A"/>
<path fill-rule="evenodd" clip-rule="evenodd" d="M27.9638 17.3077L25.787 21.0669L13.7385 20.3892L14.9447 18.2952L27.9638 17.3077ZM36.6737 5.32936L37.7654 9.4781L20.6693 8.35462L21.8748 6.2614L36.6737 5.32936ZM25.3399 0.244147L35.3469 0.251537L36.1023 3.08832L24.1358 2.33736L25.3399 0.244147ZM24.4603 23.4048L22.7226 26.3924L10.2734 26.4057L11.479 24.3132L24.4603 23.4048ZM46.3171 15.3446L43.3037 20.568H46.1737C47.5034 20.568 49.8864 19.9043 50.6196 18.0106C51.2988 16.2508 50.0504 15.3424 49.179 15.3424L46.3171 15.3446ZM49.1908 10.3481L51.6943 10.3326C53.3603 10.3237 55.098 9.56162 55.7336 8.01536C56.3197 6.58071 55.5318 5.35893 54.4874 5.36336L52.0661 5.3604L49.1908 10.3481ZM37.8592 9.4781L40.3871 5.09284L48.9425 4.54367L49.2411 4.01149L41.3272 3.45788L43.178 0.244147L57.8542 0.243408C62.3673 0.243408 65.706 1.85693 64.408 6.60214C64.0178 8.03975 62.1833 11.6586 56.8031 13.1745C57.9451 13.3105 60.7893 14.5707 60.2992 17.8377C59.4285 23.631 51.9278 26.3887 47.7554 26.3902L30.4288 26.3983L29.5751 23.0463L38.6501 22.4062L38.9583 21.8756L29.1153 21.2761L28.0547 17.3026L42.0605 16.4851L42.365 15.9588L17.2028 14.3712L18.4083 12.2787L45.493 10.5203L45.7997 9.99327L37.8592 9.4781Z" fill="#0B0A0A"/>
</g>
<defs>
<clipPath id="clip0_1_397">
<rect width="73" height="41" fill="white"/>
</clipPath>
</defs>
</svg>
