<svg width="120" height="16" viewBox="0 0 120 16" fill="none" xmlns="http://www.w3.org/2000/svg">
<g clip-path="url(#clip0_1_375)">
<mask id="mask0_1_375" style="mask-type:luminance" maskUnits="userSpaceOnUse" x="0" y="0" width="120" height="16">
<path d="M120 0H0V15.5145H120V0Z" fill="white"/>
</mask>
<g mask="url(#mask0_1_375)">
<path fill-rule="evenodd" clip-rule="evenodd" d="M102.344 15.2195C102.282 15.2723 102.202 15.3008 102.121 15.3008H97.7672C97.6294 15.3008 97.4952 15.228 97.4385 15.1023C97.373 14.9576 97.411 14.7889 97.5294 14.691L105.474 8.00018C105.651 7.85073 105.652 7.57812 105.475 7.42836L97.5414 0.692213C97.4451 0.610208 97.3891 0.484825 97.411 0.360392C97.4407 0.1891 97.5876 0.0722656 97.7535 0.0722656H101.943C102.024 0.0722656 102.102 0.100762 102.166 0.153321L110.812 7.42614L110.89 7.49295C111.023 7.6063 111.026 7.81052 110.898 7.92862L110.812 8.00683L102.344 15.2195Z" fill="#9E9E9E"/>
<path fill-rule="evenodd" clip-rule="evenodd" d="M17.445 0.178918H14.7885C14.47 0.178918 14.2091 0.439815 14.2091 0.758654V9.34483C14.2091 9.54652 13.9716 9.6548 13.8193 9.52214L3.98691 0.962242C3.31662 0.379023 2.58807 0.0820312 1.81931 0.0820312C1.14079 0.0820312 0 0.359076 0 2.21195V14.634C0 14.9541 0.259314 15.2134 0.57942 15.2134H3.2343C3.55409 15.2134 3.8134 14.9541 3.8134 14.6343V6.01238C3.8134 5.81037 4.05119 5.7024 4.20348 5.83538L14.1397 14.5247C14.7556 15.0712 15.4252 15.3483 16.1303 15.3483C16.8377 15.3483 18.0237 15.0589 18.0237 13.1208V0.758021C18.0237 0.439498 17.7632 0.178918 17.445 0.178918Z" fill="#0B0A0A"/>
<path fill-rule="evenodd" clip-rule="evenodd" d="M36.8716 0.178467H33.7839C33.5952 0.178467 33.4401 0.332346 33.4401 0.522319V10.578C33.4401 11.4063 32.4117 11.8264 30.3818 11.8264H26.1825C24.1146 11.8264 23.0647 11.4063 23.0647 10.578V0.522319C23.0647 0.332346 22.9108 0.178467 22.7205 0.178467H19.5948C19.4042 0.178467 19.25 0.332346 19.25 0.522319V10.7325C19.25 11.4408 19.37 12.0518 19.603 12.5496C19.8351 13.0416 20.1511 13.4649 20.5434 13.8078C20.9275 14.1428 21.3787 14.4091 21.8815 14.5975C22.3694 14.7821 22.8836 14.9208 23.4069 15.0123C23.9278 15.1063 24.4698 15.1627 25.0182 15.1836C25.5524 15.2032 26.0545 15.213 26.525 15.213H29.942C32.4503 15.213 34.2354 14.866 35.4009 14.1533C36.6054 13.4162 37.2164 12.2662 37.2164 10.7325V0.522319C37.2164 0.332346 37.0613 0.178467 36.8716 0.178467Z" fill="#0B0A0A"/>
<path fill-rule="evenodd" clip-rule="evenodd" d="M54.9266 2.8322V0.853316C54.9266 0.470203 54.6163 0.159912 54.2332 0.159912H39.1312C38.7481 0.159912 38.4375 0.470519 38.4375 0.853633V2.8322C38.4375 3.21532 38.7481 3.52624 39.1315 3.52624H44.4144C44.6075 3.52624 44.7643 3.68265 44.7643 3.87579V14.5194C44.7643 14.9025 45.0749 15.2131 45.458 15.2131H47.8849C48.2683 15.2131 48.5792 14.9022 48.5792 14.5191V3.87579C48.5792 3.68265 48.7357 3.52624 48.9288 3.52624H54.2325C54.616 3.52624 54.9266 3.21563 54.9266 2.8322Z" fill="#0B0A0A"/>
<path fill-rule="evenodd" clip-rule="evenodd" d="M58.885 7.65868L60.8196 4.8781C60.9079 4.7505 61.0963 4.74987 61.1859 4.87652L63.1436 7.63747C63.2348 7.7657 63.143 7.94333 62.9856 7.94333H59.0338C58.8876 7.94333 58.8014 7.77868 58.885 7.65868ZM63.142 1.19578C62.6218 0.469452 61.9332 0.100586 61.0951 0.100586C60.2684 0.100586 59.5863 0.476417 59.0649 1.21984L49.7492 14.6716C49.6602 14.7995 49.6666 14.9736 49.7742 15.0965C49.8442 15.176 49.9509 15.213 50.0566 15.213H53.7187C53.8352 15.213 53.9448 15.1535 54.0081 15.0557L56.3476 11.4563C56.3989 11.3774 56.4863 11.33 56.5803 11.33C56.5803 11.33 64.3803 11.3281 65.561 11.3296C65.6547 11.3296 65.7412 11.3765 65.7928 11.4547L68.1852 15.0585C68.2485 15.1551 68.3565 15.213 68.472 15.213H71.9866C72.1129 15.213 72.2304 15.1427 72.2896 15.0291C72.3497 14.9167 72.3424 14.7808 72.2712 14.6754L63.142 1.19578Z" fill="#0B0A0A"/>
<path fill-rule="evenodd" clip-rule="evenodd" d="M90.6223 0.178918H87.8927C87.5935 0.178918 87.3506 0.421767 87.3506 0.721293V9.42557C87.3506 9.59591 87.1502 9.6871 87.0217 9.57533L77.1288 0.962242C76.4588 0.379023 75.729 0.0820312 74.9593 0.0820312C74.2808 0.0820312 73.1406 0.359076 73.1406 2.21195V14.6707C73.1406 14.9693 73.3847 15.2134 73.6833 15.2134H76.412C76.7118 15.2134 76.955 14.9702 76.955 14.6704V5.93132C76.955 5.76066 77.1557 5.66979 77.2843 5.78187L87.2813 14.5247C87.8965 15.0712 88.5668 15.3483 89.2719 15.3483C89.9786 15.3483 91.1653 15.0589 91.1653 13.1208V0.721926C91.1653 0.422084 90.9222 0.178918 90.6223 0.178918Z" fill="#0B0A0A"/>
<path fill-rule="evenodd" clip-rule="evenodd" d="M95.8514 0.178467H92.727C92.5367 0.178467 92.3828 0.332346 92.3828 0.522319V14.8688C92.3828 15.0585 92.5367 15.213 92.727 15.213H95.8514C96.0414 15.213 96.1962 15.0585 96.1962 14.8688V0.522319C96.1962 0.332346 96.0414 0.178467 95.8514 0.178467Z" fill="#0B0A0A"/>
<path fill-rule="evenodd" clip-rule="evenodd" d="M112.144 6.45506C112.283 6.57316 112.487 6.57316 112.626 6.45538L119.561 0.692213C119.657 0.610208 119.713 0.484825 119.691 0.360393C119.661 0.1891 119.514 0.0722656 119.349 0.0722656H115.159C115.079 0.0722656 115 0.100762 114.936 0.153321L110.07 4.12028C109.894 4.26846 109.893 4.53917 110.068 4.6883L112.144 6.45506Z" fill="#0B0A0A"/>
<path fill-rule="evenodd" clip-rule="evenodd" d="M112.12 8.97447C112.259 8.85637 112.463 8.85606 112.602 8.97416L119.64 14.7221C119.736 14.8038 119.792 14.9295 119.77 15.0539C119.74 15.2249 119.593 15.3421 119.428 15.3421H115.238C115.158 15.3421 115.079 15.3136 115.015 15.261L110.179 11.2345C110.003 11.0863 110.003 10.8156 110.178 10.6665L112.12 8.97447Z" fill="#0B0A0A"/>
</g>
</g>
<defs>
<clipPath id="clip0_1_375">
<rect width="120" height="16" fill="white"/>
</clipPath>
</defs>
</svg>
