<svg width="126" height="17" viewBox="0 0 126 17" fill="none" xmlns="http://www.w3.org/2000/svg">
<g clip-path="url(#clip0_1_421)">
<mask id="mask0_1_421" style="mask-type:luminance" maskUnits="userSpaceOnUse" x="0" y="0" width="126" height="17">
<path d="M126 0H0V16.3636H126V0Z" fill="white"/>
</mask>
<g mask="url(#mask0_1_421)">
<path d="M54.3211 10.6478H62.6339L58.2429 3.55684L50.1702 16.3641H46.4993L56.3175 0.998652C56.5315 0.692039 56.8159 0.441184 57.1468 0.267101C57.4778 0.0930181 57.8456 0.000777411 58.2195 -0.00189342C58.5934 -0.00456426 58.9626 0.0824125 59.2959 0.25175C59.6293 0.421088 59.9173 0.667855 60.1357 0.971379L69.9811 16.3641H66.3102L64.5811 13.5005H56.1702L54.3375 10.6478M92.4811 13.5005V0.153198H89.3611V14.815C89.3606 15.0188 89.4014 15.2205 89.481 15.408C89.5607 15.5956 89.6777 15.7649 89.8248 15.9059C89.9724 16.057 90.1489 16.1769 90.3438 16.2584C90.5387 16.3399 90.748 16.3814 90.9593 16.3805H105.141L106.99 13.5168H92.4648M40.8975 11.1168C42.3514 11.1168 43.7457 10.5393 44.7737 9.51125C45.8018 8.48321 46.3793 7.08889 46.3793 5.63502C46.3793 4.18115 45.8018 2.78683 44.7737 1.75879C43.7457 0.730745 42.3514 0.153198 40.8975 0.153198H27.2611V16.3641H30.3757V3.02229H40.7066C41.4024 3.02229 42.0697 3.29871 42.5618 3.79074C43.0538 4.28276 43.3302 4.9501 43.3302 5.64593C43.3302 6.34176 43.0538 7.00909 42.5618 7.50112C42.0697 7.99315 41.4024 8.26956 40.7066 8.26956H31.9193L41.2248 16.3641H45.7466L39.4957 11.1168H40.8975ZM8.10476 16.3641H17.5248C19.6373 16.3093 21.645 15.4316 23.1198 13.918C24.5946 12.4044 25.42 10.3747 25.42 8.26138C25.42 6.14809 24.5946 4.11836 23.1198 2.60478C21.645 1.0912 19.6373 0.213469 17.5248 0.158652H8.10476C7.02301 0.130583 5.94659 0.319406 4.93897 0.713986C3.93136 1.10857 3.01295 1.70092 2.23792 2.4561C1.46288 3.21129 0.846913 4.11402 0.426329 5.11106C0.00574413 6.1081 -0.210938 7.17926 -0.210938 8.26138C-0.210938 9.3435 0.00574413 10.4147 0.426329 11.4117C0.846913 12.4088 1.46288 13.3115 2.23792 14.0667C3.01295 14.8219 3.93136 15.4142 4.93897 15.8088C5.94659 16.2034 7.02301 16.3922 8.10476 16.3641ZM17.312 13.5114H8.31204C6.95037 13.4675 5.65917 12.8957 4.71148 11.9169C3.76379 10.9382 3.23392 9.62921 3.23392 8.26684C3.23392 6.90446 3.76379 5.5955 4.71148 4.61675C5.65917 3.638 6.95037 3.06621 8.31204 3.02229H17.312C18.015 2.99962 18.7153 3.11849 19.3714 3.37185C20.0275 3.62521 20.626 4.00788 21.1313 4.49712C21.6366 4.98636 22.0383 5.57219 22.3127 6.21978C22.5871 6.86737 22.7285 7.56352 22.7285 8.26684C22.7285 8.97016 22.5871 9.6663 22.3127 10.3139C22.0383 10.9615 21.6366 11.5473 21.1313 12.0366C20.626 12.5258 20.0275 12.9085 19.3714 13.1618C18.7153 13.4152 18.015 13.5341 17.312 13.5114ZM76.4884 16.3641H86.1048L87.9266 13.5114H76.7011C75.9982 13.5341 75.2978 13.4152 74.6417 13.1618C73.9856 12.9085 73.3872 12.5258 72.8819 12.0366C72.3766 11.5473 71.9748 10.9615 71.7005 10.3139C71.4261 9.6663 71.2847 8.97016 71.2847 8.26684C71.2847 7.56352 71.4261 6.86737 71.7005 6.21978C71.9748 5.57219 72.3766 4.98636 72.8819 4.49712C73.3872 4.00788 73.9856 3.62521 74.6417 3.37185C75.2978 3.11849 75.9982 2.99962 76.7011 3.02229H85.8375L87.6811 0.158652H76.4884C75.4066 0.130583 74.3302 0.319406 73.3226 0.713986C72.315 1.10857 71.3966 1.70092 70.6215 2.4561C69.8465 3.21129 69.2305 4.11402 68.81 5.11106C68.3894 6.1081 68.1727 7.17926 68.1727 8.26138C68.1727 9.3435 68.3894 10.4147 68.81 11.4117C69.2305 12.4088 69.8465 13.3115 70.6215 14.0667C71.3966 14.8219 72.315 15.4142 73.3226 15.8088C74.3302 16.2034 75.4066 16.3922 76.4884 16.3641ZM114.599 13.5114C113.456 13.5118 112.345 13.1391 111.433 12.45C110.521 11.7608 109.86 10.7928 109.548 9.6932H122.868L124.701 6.83502H109.548C109.859 5.73492 110.52 4.76645 111.432 4.07715C112.344 3.38785 113.456 3.0155 114.599 3.01684H123.741L125.568 0.153198H114.387C112.274 0.208014 110.266 1.08575 108.792 2.59933C107.317 4.11291 106.491 6.14264 106.491 8.25593C106.491 10.3692 107.317 12.399 108.792 13.9125C110.266 15.4261 112.274 16.3038 114.387 16.3587H124.003L125.83 13.5059H114.594" fill="#0B0A0A"/>
</g>
</g>
<defs>
<clipPath id="clip0_1_421">
<rect width="126" height="17" fill="white"/>
</clipPath>
</defs>
</svg>
