<svg width="133" height="129" viewBox="0 0 133 129" fill="none" xmlns="http://www.w3.org/2000/svg">
<path fill-rule="evenodd" clip-rule="evenodd" d="M104.591 40.8552C103.346 40.8552 102.413 39.9214 102.413 38.7541V26.6145C102.413 25.4472 103.346 24.4355 104.591 24.4355C105.759 24.4355 106.693 25.4472 106.693 26.6145V38.7541C106.693 39.9214 105.759 40.8552 104.591 40.8552ZM117.743 40.8552C117.198 40.8552 116.653 40.6996 116.264 40.2327C115.408 39.4545 115.408 38.0538 116.264 37.1977L124.824 28.6377C125.68 27.7817 127.003 27.7817 127.859 28.6377C128.715 29.4937 128.715 30.8166 127.859 31.6726L119.299 40.2327C118.91 40.6996 118.288 40.8552 117.743 40.8552ZM91.3624 40.8552C90.8177 40.8552 90.2729 40.6996 89.806 40.2327L81.246 31.6726C80.39 30.8166 80.39 29.4937 81.246 28.6377C82.102 27.7817 83.4249 27.7817 84.2809 28.6377L92.8409 37.1977C93.6969 38.0538 93.6969 39.4545 92.8409 40.2327C92.4518 40.6996 91.9071 40.8552 91.3624 40.8552Z" fill="black"/>
<path fill-rule="evenodd" clip-rule="evenodd" d="M17.9019 23.7346L0.470626 88.9463C-0.463194 92.6038 -0.15192 99.7631 2.72736 102.642C13.6997 113.459 28.563 120.307 43.2707 124.276C47.1616 125.287 51.2082 125.677 55.2547 125.599C62.5696 125.521 70.0402 124.12 77.0438 122.097C80.39 121.163 83.9697 119.996 87.1602 118.595C87.4715 118.517 87.8606 118.517 88.1719 118.673C89.0279 119.295 90.0395 119.84 91.0511 120.307C93.4635 121.552 96.0315 122.719 98.5995 123.731C106.615 126.844 115.253 128.711 123.89 128.867L124.513 128.945L124.824 128.322C128.871 121.241 131.205 112.37 132.217 104.277C133.306 95.3274 133.151 84.355 129.96 75.795C126.147 65.7565 117.276 58.8306 106.459 58.1303C95.409 57.3521 85.8373 63.4219 80.2344 72.7601L79.7675 73.5383L80.39 74.1609C83.814 77.3514 86.4599 81.3201 88.4053 85.5223C88.6388 85.9892 88.4831 86.6896 87.9384 86.9231C87.7828 86.9231 87.6271 87.0009 87.4715 87.0009C87.0824 87.0009 86.6933 86.7674 86.4599 86.3783C81.7129 76.2619 72.7638 68.3245 61.1689 68.0132C49.9631 67.7019 40.6249 74.7056 35.411 84.355C35.1776 84.8998 34.555 85.0554 34.0103 84.822C33.4656 84.5107 33.2321 83.8881 33.5434 83.3434C35.5667 79.686 38.1347 76.2619 41.2474 73.4605L41.6365 73.0714V40.3877L36.5005 31.9055C36.3449 31.5942 36.3449 31.283 36.4227 30.9717C36.5783 30.6604 36.8896 30.427 37.2009 30.3491L47.4729 27.7811C47.862 27.7033 48.2511 27.7811 48.4845 28.0146L56.2664 35.563L70.1958 17.4313L56.1885 0L17.9019 23.7346ZM103.969 93.8489C103.502 93.6154 103.269 92.9151 103.58 92.4482C103.891 91.9034 104.514 91.7478 105.058 92.0591C111.44 95.7165 118.21 98.5958 125.291 100.775C125.836 100.93 126.147 101.475 125.992 102.098C125.836 102.565 125.447 102.798 124.98 102.798H124.669C117.432 100.775 110.506 97.5842 103.969 93.8489ZM25.6838 99.374C35.878 105.288 47.4729 109.646 59.2234 111.202C59.7682 111.358 60.2351 111.825 60.1573 112.447C60.0795 112.992 59.6125 113.381 59.0678 113.381H58.99C46.9282 111.825 35.0998 107.234 24.5943 101.164C24.0496 100.93 23.8939 100.23 24.2052 99.7631C24.5165 99.2183 25.139 99.0627 25.6838 99.374Z" fill="black"/>
</svg>
